<?xml version="1.0" encoding="UTF-8"?>
<svg width="47px" height="35px" viewBox="0 0 47 35" version="1.1" xmlns="http://www.w3.org/2000/svg" xmlns:xlink="http://www.w3.org/1999/xlink">
    <!-- Generator: Sketch 61.2 (89653) - https://sketch.com -->
    <title>bus</title>
    <desc>Created with Sketch.</desc>
    <g id="Templates" stroke="none" stroke-width="1" fill="none" fill-rule="evenodd">
        <g id="LANDING-PAGE" transform="translate(-194.000000, -75.000000)">
            <g id="Group-2" transform="translate(0.000000, 65.000000)">
                <g id="newsletter-bar-copy">
                    <g id="bus" transform="translate(194.000000, 10.000000)">
                        <path d="M8,1 L33.4792027,1 C36.5997345,1 39.1993312,3.39197437 39.4584773,6.50172712 L40,13 L40,13 L45.5,19 L45.5,27.5114282 C45.5,28.0592297 45.0592588,28.505066 44.5114935,28.5113621 L3.01149349,28.9883736 C2.45924522,28.9947213 2.00641373,28.5521815 2.00006605,27.9999332 C2.00002202,27.9961022 2,27.9922709 2,27.9884397 L2,7 C2,3.6862915 4.6862915,1 8,1 Z" id="Rectangle" fill="#FFFFFF" transform="translate(23.750000, 15.000000) scale(-1, 1) translate(-23.750000, -15.000000) "></path>
                        <g id="Group" fill="#1437B9" fill-rule="nonzero">
                            <path d="M23.5237667,30.0028132 L3.83699971,30.0028132 C1.72120955,30.0028132 0,28.2748538 0,26.150947 L0,20.1130645 C0,18.7184918 0.644565595,17.377001 1.72831344,16.5076499 L6.02742568,12.2782524 L7.63803036,4.85410253 C8.24231061,2.06874862 10.7418007,0.0470334279 13.5813784,0.0470334279 L40.7164389,0.0470334279 C43.651964,0.0470334279 46.0402198,2.44465495 46.0402198,5.39178217 L46.0402198,7.16551114 C46.0402198,7.86351971 45.4764947,8.42927497 44.7813925,8.42927497 C44.0862904,8.42927497 43.5225653,7.86360998 43.5225653,7.16560141 L43.5225653,5.39187245 C43.5225653,3.8384152 42.263738,2.57465137 40.7164389,2.57465137 L13.5815582,2.57465137 C11.9172697,2.57465137 10.4523397,3.75942432 10.0982243,5.39196273 L8.40731868,13.1853385 C8.35507362,13.426193 8.23376796,13.6464647 8.05832885,13.8189808 L3.44116018,18.3611822 C3.40537097,18.3962993 3.3677833,18.42934 3.3281274,18.4598531 C2.82060394,18.8520992 2.51765451,19.4701239 2.51765451,20.1129743 L2.51765451,26.1508567 C2.51765451,26.8810936 3.10943551,27.4751953 3.83690979,27.4751953 L23.5237667,27.4751953 C24.2188688,27.4751953 24.7825939,28.0409505 24.7825939,28.7389591 C24.7825939,29.4369677 24.2189587,30.0028132 23.5237667,30.0028132 Z" id="Path"></path>
                            <path d="M30.3636436,14.1802625 L7.17726668,14.1802625 C6.4819847,14.1802625 5.91843942,13.6145073 5.91843942,12.9164987 C5.91843942,12.2184901 6.4819847,11.6527349 7.17726668,11.6527349 L30.3635536,11.6527349 C31.0586558,11.6527349 31.6223809,12.2184901 31.6223809,12.9164987 C31.6223809,13.6145073 31.0587457,14.1802625 30.3636436,14.1802625 Z" id="Path"></path>
                            <path d="M42.2033999,30.0028132 L34.7902661,30.0028132 C34.095164,30.0028132 33.5314389,29.437058 33.5314389,28.7390494 C33.5314389,28.0410408 34.095164,27.4752856 34.7902661,27.4752856 L42.2033999,27.4752856 C42.9307843,27.4752856 43.5225653,26.8811838 43.5225653,26.150947 L43.5225653,14.1802625 L36.2097852,14.1802625 C35.514683,14.1802625 34.9509579,13.6145073 34.9509579,12.9164987 C34.9509579,12.2184901 35.514683,11.6527349 36.2097852,11.6527349 L44.7813925,11.6527349 C45.4764947,11.6527349 46.0402198,12.2184901 46.0402198,12.9164987 L46.0402198,26.150947 C46.0403996,28.2748538 44.3191901,30.0028132 42.2033999,30.0028132 Z" id="Path"></path>
                        </g>
                        <rect id="Rectangle" fill="#2CD5C4" fill-rule="nonzero" x="17.3328563" y="1.3541294" width="8.39560229" height="27.3534139"></rect>
                        <path d="M25.8229495,30.0616727 L17.5091913,30.0616727 C16.8134613,30.0616727 16.2495528,29.4939158 16.2495528,28.7934377 L16.2495528,1.26823503 C16.2495528,0.567756905 16.8134613,0 17.5091913,0 L25.8229495,0 C26.5184996,0 27.082588,0.567756905 27.082588,1.26823503 L27.082588,28.7934377 C27.082588,29.4938252 26.5184996,30.0616727 25.8229495,30.0616727 Z M18.7688298,27.5251121 L24.563221,27.5251121 L24.563221,2.53647006 L18.7688298,2.53647006 L18.7688298,27.5251121 L18.7688298,27.5251121 Z" id="Shape" fill="#1437B9" fill-rule="nonzero"></path>
                        <circle id="Oval" fill="#2CD5C4" fill-rule="nonzero" cx="9.74973169" cy="28.7075433" r="4.60403996"></circle>
                        <path d="M9.61431875,34.6657127 C6.40375446,34.6657127 3.79156232,32.0536106 3.79156232,28.8429562 C3.79156232,25.6323019 6.40366439,23.0201998 9.61431875,23.0201998 C12.8249731,23.0201998 15.4370752,25.6323019 15.4370752,28.8429562 C15.4370752,32.0536106 12.8249731,34.6657127 9.61431875,34.6657127 Z M9.61431875,25.5421362 C7.79425136,25.5421362 6.31358879,27.0228889 6.31358879,28.8428662 C6.31358879,30.6628435 7.79434143,32.1435961 9.61431875,32.1435961 C11.4342961,32.1435961 12.9150487,30.6628435 12.9150487,28.8428662 C12.9150487,27.0228889 11.4342961,25.5421362 9.61431875,25.5421362 Z" id="Shape" fill="#1437B9" fill-rule="nonzero"></path>
                        <circle id="Oval" fill="#2CD5C4" fill-rule="nonzero" cx="36.290668" cy="28.7075433" r="4.60403996"></circle>
                        <path d="M36.4260359,34.6657127 C33.2154964,34.6657127 30.6033245,32.0536106 30.6033245,28.8429562 C30.6033245,25.6323019 33.2154063,23.0201998 36.4260359,23.0201998 C39.6367555,23.0201998 42.2488373,25.6323019 42.2488373,28.8429562 C42.2488373,32.0536106 39.6367555,34.6657127 36.4260359,34.6657127 Z M36.4260359,25.5421362 C34.6059825,25.5421362 33.1253314,27.0228889 33.1253314,28.8428662 C33.1253314,30.6628435 34.6059825,32.1435961 36.4260359,32.1435961 C38.2460892,32.1435961 39.7269204,30.6628435 39.7269204,28.8428662 C39.7269204,27.0228889 38.2459991,25.5421362 36.4260359,25.5421362 Z" id="Shape" fill="#1437B9" fill-rule="nonzero"></path>
                    </g>
                </g>
            </g>
        </g>
    </g>
</svg>