<svg xmlns="http://www.w3.org/2000/svg" width="24" height="25" viewBox="0 0 24 25">
    <g fill="none" fill-rule="nonzero">
        <g fill="#2D527C">
            <path d="M20.919 9.465h2.048v1.475H20.92zM1.033 9.465h1.903v1.475H1.033z"/>
        </g>
        <path fill="#2CD5C4" d="M7.17 5.842l-1.75-.917a.169.169 0 0 0-.156 0l-1.75.917a.171.171 0 0 1-.25-.154V1.769c0-.366.293-.663.655-.662l3.331.008c.094 0 .17.078.17.173v4.4c0 .13-.135.213-.25.154z"/>
        <g fill="#1437B9">
            <path d="M7.25 6.599a.894.894 0 0 1-.413-.102l-1.495-.782-1.495.782a.894.894 0 0 1-1.036-.153.921.921 0 0 1-.275-.657V1.77c0-.772.62-1.4 1.381-1.4l3.335.008c.494.001.897.41.897.911v4.4a.907.907 0 0 1-.9.91zm-1.908-2.43c.143 0 .286.035.413.1l.938.492v-2.91l-2.701-.006v2.916l.937-.49a.893.893 0 0 1 .413-.103z"/>
            <path d="M21.078 19.645H2.922a.733.733 0 0 1-.728-.737V2.592C2.194 1.162 3.342 0 4.753 0h14.494c1.411 0 2.559 1.163 2.559 2.592v1.754a.733.733 0 0 1-.728.738.733.733 0 0 1-.728-.738V2.592a1.11 1.11 0 0 0-1.103-1.117H4.753A1.11 1.11 0 0 0 3.65 2.592V18.17h16.7V8.074c0-.407.326-.737.728-.737.402 0 .728.33.728.737v10.834a.733.733 0 0 1-.728.737z"/>
        </g>
        <path fill="#2CD5C4" d="M2.93 24.262h18.14c1.203 0 2.178-.987 2.178-2.206V10.757a.601.601 0 0 0-.931-.51l-9.801 6.51a.93.93 0 0 1-1.032 0l-9.8-6.51a.601.601 0 0 0-.932.51v11.299c0 1.219.975 2.206 2.177 2.206z"/>
        <g fill="#1437B9">
            <path d="M21.07 25H2.93C1.326 25 .023 23.68.023 22.056V10.757c0-.743.597-1.348 1.331-1.348.258 0 .51.076.727.221l9.802 6.51a.21.21 0 0 0 .232 0l9.802-6.51c.218-.145.47-.221.727-.221.734 0 1.331.605 1.331 1.348v11.299c0 1.623-1.303 2.944-2.905 2.944zM1.48 10.994v11.062c0 .81.65 1.469 1.45 1.469h18.14c.8 0 1.45-.66 1.45-1.47v-11.06l-9.605 6.379a1.649 1.649 0 0 1-1.83 0l-9.605-6.38z"/>
            <path d="M14.184 11.762H9.816a.733.733 0 0 1-.728-.737c0-.408.326-.738.728-.738h4.368c.402 0 .728.33.728.738a.733.733 0 0 1-.728.737zM14.184 8.074H9.816a.733.733 0 0 1-.728-.737c0-.408.326-.738.728-.738h4.368c.402 0 .728.33.728.738a.733.733 0 0 1-.728.737z"/>
        </g>
    </g>
</svg>
